Coordinates
version=1
nRows=5
nColumns=63
inDegrees=yes

Units are S.I. units (second, meters, Newtons, ...)
If the header above contains a line with 'inDegrees', this indicates whether rotational values are in degrees (yes) or radians (no).

endheader
time	pelvis_tilt	pelvis_list	pelvis_rotation	pelvis_tx	pelvis_ty	pelvis_tz	hip_flexion_r	hip_adduction_r	hip_rotation_r	knee_angle_r	knee_angle_r_beta	ankle_angle_r	subtalar_angle_r	mtp_angle_r	hip_flexion_l	hip_adduction_l	hip_rotation_l	knee_angle_l	knee_angle_l_beta	ankle_angle_l	subtalar_angle_l	mtp_angle_l	L5_S1_Flex_Ext	L5_S1_Lat_Bending	L5_S1_axial_rotation	L4_L5_Flex_Ext	L4_L5_Lat_Bending	L4_L5_axial_rotation	L3_L4_Flex_Ext	L3_L4_Lat_Bending	L3_L4_axial_rotation	L2_L3_Flex_Ext	L2_L3_Lat_Bending	L2_L3_axial_rotation	L1_L2_Flex_Ext	L1_L2_Lat_Bending	L1_L2_axial_rotation	L1_T12_Flex_Ext	L1_T12_Lat_Bending	L1_T12_axial_rotation	Abs_r3	Abs_r2	Abs_r1	Abs_t1	Abs_t2	neck_flexion	neck_bending	neck_rotation	arm_flex_r	arm_add_r	arm_rot_r	elbow_flex_r	pro_sup_r	wrist_flex_r	wrist_dev_r	arm_flex_l	arm_add_l	arm_rot_l	elbow_flex_l	pro_sup_l	wrist_flex_l	wrist_dev_l
     22.50000000	     -2.53324536	      1.48398554	     -9.22242572	      1.06758583	      0.85928127	      0.33677411	    -11.43244985	     -1.11513235	      3.13489621	     20.84367664	      0.36379079	      8.35123372	    -17.76743923	      0.00000000	     20.37496786	      0.69279645	     -2.52590300	      5.79889147	      0.10120975	     -2.52890582	    -14.91014936	      0.00000000	      0.00312500	     -0.21280936	      1.98620760	      0.00580344	     -0.28303644	      2.11034557	      0.00513406	     -0.51742467	      2.11034557	      0.00357156	     -0.51742467	      1.73793165	      0.00290188	     -0.43396084	      1.61379367	      0.00178563	     -0.32964169	      1.48965570	      0.02232156	     -2.40734201	     11.04669080	      0.00000000	      0.00000000	     -0.00000000	      0.00000000	     -0.00000000	     -2.37174349	    -13.78341572	      6.18910287	     42.46399986	     39.05682032	      0.00000000	      5.00000014	    -11.56137652	     -7.61832566	      3.13423516	     28.90513315	     47.35835784	      0.00000000	      5.00000014
     22.53333333	     -1.92270285	      0.91393290	     -8.06742443	      1.10653678	      0.86052408	      0.33397420	    -10.56958119	     -1.18315144	      1.18289360	     27.36573160	      0.47762212	      3.18142554	    -18.22574562	      0.00000000	     18.69101250	      1.20781640	     -1.37695272	      7.91058832	      0.13806581	     -2.33983777	    -15.88384469	      0.00000000	      0.00424240	     -0.18063243	      1.73863531	      0.00787856	     -0.24024114	      1.84730002	      0.00696984	     -0.43918970	      1.84730002	      0.00484864	     -0.43918970	      1.52130590	      0.00393949	     -0.36834566	      1.41264119	      0.00242411	     -0.27979964	      1.30397648	      0.03030304	     -2.04335021	      9.66976802	      0.00000000	      0.00000000	     -0.00000000	      0.00000000	     -0.00000000	     -3.84902318	    -13.38518093	      5.92304612	     41.78727193	     39.05543877	      0.00000000	      5.00000014	    -11.79093211	     -7.49930686	      3.22497687	     28.29789854	     47.41634358	      0.00000000	      5.00000014
     22.56666667	     -1.30214491	      0.30900786	     -6.83502302	      1.14606390	      0.86341327	      0.33159918	     -8.23929803	     -1.31324129	     -0.38417368	     35.21269414	      0.61457745	     -3.47711128	    -18.47685789	      0.00000000	     16.63828008	      1.53382011	     -0.87582146	     10.15082022	      0.17716523	     -1.31194104	    -16.04221513	      0.00000000	      0.00601644	     -0.15609572	      1.46666989	      0.01117314	     -0.20760731	      1.55833676	      0.00988442	     -0.37953114	      1.55833676	      0.00687619	     -0.37953114	      1.28333615	      0.00558687	     -0.31831040	      1.19166928	      0.00343780	     -0.24179228	      1.10000242	      0.04297486	     -1.76578605	      8.15717792	      0.00000000	      0.00000000	     -0.00000000	      0.00000000	     -0.00000000	     -5.20933510	    -12.37010342	      4.68346695	     39.87642202	     38.94013567	      0.00000000	      5.00000014	    -11.78641911	     -7.41983623	      3.08534085	     27.97052313	     47.36893733	      0.00000000	      5.00000014
     22.60000000	     -0.74316528	     -0.28721292	     -5.55704414	      1.18510434	      0.86731672	      0.32996613	     -4.54081480	     -1.21565725	     -0.95091032	     43.45532248	      0.75843845	    -10.38495068	    -18.66901335	      0.00000000	     14.10321489	      1.68179498	     -0.48003240	     11.68486989	      0.20393945	      0.00540438	    -15.89787408	      0.00000000	      0.00688072	     -0.13952406	      1.18536752	      0.01277819	     -0.18556700	      1.25945299	      0.01130434	     -0.33923881	      1.25945299	      0.00786398	     -0.33923881	      1.03719658	      0.00638944	     -0.28451747	      0.96311111	      0.00393165	     -0.21612277	      0.88902564	      0.04914832	     -1.57832410	      6.59265853	      0.00000000	      0.00000000	     -0.00000000	      0.00000000	     -0.00000000	     -6.61003399	    -10.34223920	      0.03231672	     37.42302449	     38.52902572	      0.00000000	      5.00000014	    -11.44131330	     -7.28841213	      1.98871976	     28.19276841	     46.99817596	      0.00000000	      5.00000014
     22.63333333	     -0.24220904	     -0.86288385	     -4.21562777	      1.22266037	      0.87168526	      0.32896516	      0.09562219	     -0.70484758	     -0.80615841	     50.94576124	      0.88917127	    -15.76024289	    -18.83238733	      0.00000000	     11.16334286	      1.64067073	     -0.02856502	     12.36419292	      0.21579588	      1.44022410	    -15.40334306	      0.00000000	      0.00767611	     -0.12788010	      0.84754475	      0.01425530	     -0.17008053	      0.90051629	      0.01261108	     -0.31092767	      0.90051629	      0.00877303	     -0.31092767	      0.74160165	      0.00712803	     -0.26077310	      0.68863011	      0.00438613	     -0.19808627	      0.63565856	      0.05482968	     -1.44660524	      4.71378962	      0.00000000	      0.00000000	     -0.00000000	      0.00000000	     -0.00000000	     -7.41265369	     -8.99621811	     -1.43721414	     34.39282617	     38.36499544	      0.00000000	      5.00000014	    -10.68140967	     -7.35352293	      1.49005894	     28.69290519	     46.83092997	      0.00000000	      5.00000014
